HIERARCHY
ROOT Hips
{
	OFFSET 0.00 0.00 0.00
	CHANNELS 6 Xposition Yposition Zposition Xrotation Yrotation Zrotation
	JOINT RightUpLeg
	{
		OFFSET -3.76699 0.00000 0.00000
		CHANNELS 3 Xrotation Yrotation Zrotation
		JOINT RightLeg
		{
			OFFSET 0.00000 -18.01768 0.00000
			CHANNELS 3 Xrotation Yrotation Zrotation
			JOINT RightFoot
			{
				OFFSET 0.00000 -16.88108 0.00000
				CHANNELS 3 Xrotation Yrotation Zrotation
				JOINT RightToeBase
				{
					OFFSET 0.00000 -1.49359 5.57418
					CHANNELS 3 Xrotation Yrotation Zrotation
					End Site
					{
						OFFSET 0.00000 0.00000 2.95275
					}
				}
			}
		}
	}
	JOINT LeftUpLeg
	{
		OFFSET 3.76699 0.00000 0.00000
		CHANNELS 3 Xrotation Yrotation Zrotation
		JOINT LeftLeg
		{
			OFFSET 0.00000 -18.01768 0.00000
			CHANNELS 3 Xrotation Yrotation Zrotation
			JOINT LeftFoot
			{
				OFFSET 0.00000 -16.88108 0.00000
				CHANNELS 3 Xrotation Yrotation Zrotation
				JOINT LeftToeBase
				{
					OFFSET 0.00000 -1.49359 5.57418
					CHANNELS 3 Xrotation Yrotation Zrotation
					End Site
					{
						OFFSET 0.00000 0.00000 2.95275
					}
				}
			}
		}
	}
	JOINT Spine
	{
		OFFSET 0.00000 7.77970 0.00000
		CHANNELS 3 Xrotation Yrotation Zrotation
		JOINT RightShoulder
		{
			OFFSET 0.00000 10.94176 0.00000
			CHANNELS 3 Xrotation Yrotation Zrotation
			JOINT RightArm
			{
				OFFSET -7.70894 0.00000 0.00000
				CHANNELS 3 Xrotation Yrotation Zrotation
				JOINT RightForeArm
				{
					OFFSET -11.52135 0.00000 0.00000
					CHANNELS 3 Yrotation Zrotation Xrotation
					JOINT RightHand
					{
						OFFSET -10.17590 0.00000 0.00000
						CHANNELS 3 Xrotation Yrotation Zrotation
						End Site
						{
							OFFSET -3.93700 0.00000 0.00000
						}
						JOINT RightHandThumb1
						{
							OFFSET 0.00000 0.00000 0.00000
							CHANNELS 3 Xrotation Zrotation Yrotation
							End Site
							{
								OFFSET 0.00000 0.00000 3.93700
							}
						}
					}
				}
			}
		}
		JOINT LeftShoulder
		{
			OFFSET 0.00000 10.94176 0.00000
			CHANNELS 3 Xrotation Yrotation Zrotation
			JOINT LeftArm
			{
				OFFSET 7.70894 0.00000 0.00000
				CHANNELS 3 Xrotation Yrotation Zrotation
				JOINT LeftForeArm
				{
					OFFSET 11.52135 0.00000 0.00000
					CHANNELS 3 Yrotation Zrotation Xrotation
					JOINT LeftHand
					{
						OFFSET 10.17590 0.00000 0.00000
						CHANNELS 3 Xrotation Yrotation Zrotation
						End Site
						{
							OFFSET 3.93700 0.00000 0.00000
						}
						JOINT LeftHandThumb1
						{
							OFFSET 0.00000 0.00000 0.00000
							CHANNELS 3 Xrotation Zrotation Yrotation
							End Site
							{
								OFFSET 0.00000 0.00000 3.93700
							}
						}
					}
				}
			}
		}
		JOINT Head
		{
			OFFSET 0.00000 16.64604 0.00000
			CHANNELS 3 Xrotation Yrotation Zrotation
			End Site
			{
				OFFSET 0.00000 4.52755 0.00000
			}
		}
	}
}
MOTION
Frames: 22
Frame Time: 0.008333
 -13.4195 33.8432 -6.1001 2.1156 6.2770 7.5760 -27.9632 1.9044 14.1552 18.3099 0.0000 0.0000 -4.0480 -24.0608 -5.5728 13.3504 0.0000 -0.0000 11.6942 -6.6560 -30.5474 -5.3130 -0.0000 0.0000 -8.3133 3.6980 -3.9161 2.9731 -0.0000 -0.0000 24.9775 2.1767 41.5231 15.5612 9.5876 -6.3386 -17.1397 -2.3559 60.1051 17.2610 -0.0000 -27.3135 4.1395 10.7745 -21.1633 32.8623 0.0000 -24.3270 -12.1686 22.3876 50.9515 -115.8085 -49.3685 -34.7089 -37.3879 -0.0000 28.4272 -4.6667 17.0406 15.5653 33.1476 -0.0000 26.2537 15.2966 18.2048 52.9482
 -13.4158 33.8383 -6.1001 2.1420 6.2026 7.5743 -28.0129 1.8921 14.1796 18.3887 -0.0000 -0.0000 -4.0646 -23.9912 -5.6518 13.3575 -0.0000 0.0000 11.6968 -6.5972 -30.5681 -5.3421 0.0000 0.0000 -8.3180 3.6837 -3.9200 2.9693 0.0000 -0.0000 25.0288 2.1950 41.5347 15.5206 9.6131 -6.3502 -17.1669 -2.3698 60.0989 17.2406 -0.0000 -27.1647 4.1379 10.7818 -21.1432 32.8623 0.0000 -24.3270 -12.2449 22.3662 51.0191 -115.9379 -49.3443 -34.8180 -37.5874 -0.0000 28.1161 -4.6771 17.0639 15.5787 33.1476 -0.0000 26.2537 15.3927 18.2121 52.8938
 -13.4119 33.8339 -6.1004 2.1716 6.1231 7.5784 -28.0699 1.8859 14.1980 18.4698 0.0000 0.0000 -4.0701 -23.9208 -5.6811 13.3223 -0.0000 -0.0000 11.6930 -6.5243 -30.5947 -5.3607 -0.0000 0.0000 -8.3163 3.6571 -3.8865 2.9017 0.0000 0.0000 25.0625 2.2237 41.5422 15.4723 9.6354 -6.3609 -17.1672 -2.3729 60.1063 17.2512 -0.0000 -27.2619 4.1701 10.7858 -21.2865 32.8623 0.0000 -24.3270 -12.2533 22.3812 50.9997 -116.2640 -49.4129 -35.0701 -37.7054 -0.0000 27.9725 -4.6875 16.9990 15.6668 33.1476 -0.0000 26.2537 15.4352 18.2903 52.8893
 -13.4079 33.8294 -6.1005 2.1998 6.0374 7.5777 -28.1238 1.8930 14.2258 18.5485 -0.0000 -0.0000 -4.0714 -23.8547 -5.7161 13.3246 0.0000 0.0000 11.6758 -6.4755 -30.6190 -5.3787 -0.0000 0.0000 -8.3113 3.6713 -3.9058 2.8663 0.0000 -0.0000 25.1041 2.2638 41.5460 15.4308 9.6490 -6.3584 -17.1582 -2.3409 60.0983 17.2652 -0.0000 -27.2814 4.1942 10.7965 -21.3797 32.8623 0.0000 -24.3270 -12.3041 22.4076 51.0467 -116.5411 -49.4281 -35.3223 -37.8745 -0.0000 27.7533 -4.7221 16.9714 15.8008 33.1476 -0.0000 26.2537 15.5441 18.3298 52.8458
 -13.4037 33.8254 -6.0999 2.2304 5.9539 7.5750 -28.1789 1.9130 14.2567 18.6169 0.0000 0.0000 -4.0745 -23.8043 -5.7770 13.2517 -0.0000 0.0000 11.6623 -6.4209 -30.6394 -5.4011 -0.0000 0.0000 -8.3416 3.6720 -3.9576 2.9370 -0.0000 -0.0000 25.1358 2.2971 41.5626 15.4523 9.6764 -6.3803 -17.1798 -2.3451 60.0853 17.2952 -0.0000 -27.2193 4.1942 10.7986 -21.3758 32.8623 0.0000 -24.3270 -12.2981 22.4120 51.0416 -116.8151 -49.4940 -35.5447 -38.0932 -0.0000 27.5231 -4.6917 17.1296 15.5699 33.1476 -0.0000 26.2537 15.7509 18.2798 52.7434
 -13.3989 33.8209 -6.1001 2.2630 5.8691 7.5783 -28.2367 1.9329 14.2815 18.6853 0.0000 0.0000 -4.0647 -23.7526 -5.8065 13.2051 0.0000 -0.0000 11.6333 -6.3836 -30.6702 -5.4139 0.0000 0.0000 -8.3113 3.6768 -3.8789 2.9683 0.0000 0.0000 25.1794 2.3379 41.5542 15.4663 9.6762 -6.3704 -17.2116 -2.2710 60.0711 17.3167 -0.0000 -27.4111 4.2217 10.8298 -21.4482 32.8623 0.0000 -24.3270 -12.3516 22.4627 51.0721 -117.0705 -49.5934 -35.7911 -38.2472 -0.0000 27.5466 -4.6701 17.0294 15.5857 33.1476 -0.0000 26.2537 15.9460 18.2709 52.6423
 -13.3943 33.8172 -6.1000 2.2842 5.7890 7.5754 -28.2734 1.9436 14.3097 18.7372 0.0000 0.0000 -4.0495 -23.6580 -5.8896 13.0732 0.0000 -0.0000 11.6547 -6.2750 -30.6928 -5.4246 0.0000 -0.0000 -8.3255 3.6455 -3.8491 2.8372 -0.0000 0.0000 25.2315 2.3741 41.5680 15.4584 9.6923 -6.3746 -17.2114 -2.2225 60.0607 17.3565 -0.0000 -27.5692 4.2311 10.7989 -21.5470 32.8623 0.0000 -24.3270 -12.3922 22.4323 51.1089 -117.1778 -49.6772 -35.9358 -38.4837 -0.0000 27.6101 -4.6344 17.0934 15.4181 33.1476 -0.0000 26.2537 15.8839 18.4848 52.6709
 -13.3893 33.8144 -6.0992 2.3069 5.7160 7.5760 -28.3182 1.9624 14.3328 18.8024 0.0000 0.0000 -4.0523 -23.6402 -5.9002 13.1792 0.0000 -0.0000 11.6451 -6.2331 -30.7104 -5.4431 -0.0000 0.0000 -8.3471 3.6401 -3.9523 3.1347 0.0000 -0.0000 25.2892 2.3902 41.5878 15.4728 9.7134 -6.3832 -17.2585 -2.2050 60.0456 17.3553 -0.0000 -27.5516 4.2061 10.7706 -21.4815 32.8623 0.0000 -24.3270 -12.4238 22.3854 51.1551 -117.1607 -49.7912 -36.0007 -38.6654 -0.0000 27.9227 -4.6524 16.9897 15.5627 33.1476 -0.0000 26.2537 16.0029 18.5748 52.5996
 -13.3833 33.8120 -6.0989 2.3261 5.6455 7.5884 -28.3537 1.9716 14.3395 18.8599 0.0000 0.0000 -4.0601 -23.5580 -5.9362 13.0920 -0.0000 -0.0000 11.5935 -6.2499 -30.7377 -5.4517 -0.0000 -0.0000 -8.3275 3.6891 -3.9265 2.9471 -0.0000 -0.0000 25.3268 2.4231 41.5806 15.4715 9.7301 -6.3609 -17.2881 -2.2067 60.0124 17.3240 -0.0000 -27.5212 4.2095 10.8220 -21.4054 32.8623 0.0000 -24.3270 -12.4173 22.4070 51.1563 -117.4693 -49.9370 -36.3222 -38.7434 -0.0000 27.9668 -4.7011 16.9090 15.7875 33.1476 -0.0000 26.2537 16.1671 18.5996 52.5299
 -13.3778 33.8108 -6.0977 2.3280 5.5989 7.5913 -28.3674 1.9521 14.3432 18.9105 0.0000 0.0000 -4.0444 -23.5026 -5.9501 13.0160 -0.0000 0.0000 11.5706 -6.2690 -30.7515 -5.4566 -0.0000 -0.0000 -8.3067 3.7269 -3.9437 2.9274 0.0000 -0.0000 25.3933 2.4270 41.5987 15.4516 9.7547 -6.3353 -17.3084 -2.1934 59.9793 17.3060 -0.0000 -27.5465 4.2087 10.8389 -21.3718 32.8623 0.0000 -24.3270 -12.4147 22.4143 51.1908 -117.5708 -50.1220 -36.4609 -38.8249 -0.0000 27.9518 -4.7249 16.8932 15.8773 33.1476 -0.0000 26.2537 16.2926 18.6806 52.4723
 -13.3736 33.8086 -6.0963 2.3434 5.5429 7.5921 -28.3941 1.9537 14.3576 18.9588 -0.0000 0.0000 -4.0587 -23.4528 -5.9831 13.0657 -0.0000 -0.0000 11.5604 -6.2512 -30.7633 -5.4765 -0.0000 -0.0000 -8.3118 3.7339 -3.9848 3.0162 0.0000 -0.0000 25.4525 2.4348 41.6100 15.4454 9.7725 -6.3139 -17.3499 -2.1817 59.9627 17.2970 -0.0000 -27.5500 4.2039 10.8402 -21.3472 32.8623 0.0000 -24.3270 -12.4499 22.3997 51.2515 -117.6759 -50.2487 -36.6542 -38.9647 -0.0000 28.1111 -4.5653 16.7647 15.4737 33.1476 -0.0000 26.2537 16.4416 18.6726 52.4112
 -13.3691 33.8077 -6.0953 2.3325 5.5094 7.5887 -28.3965 1.9207 14.3615 19.0142 0.0000 -0.0000 -4.0691 -23.3838 -6.0013 13.0831 0.0000 0.0000 11.5560 -6.2797 -30.7682 -5.4926 0.0000 -0.0000 -8.2624 3.7607 -3.9496 2.8208 0.0000 0.0000 25.5459 2.4453 41.6296 15.4255 9.7705 -6.2939 -17.3710 -2.1241 59.9470 17.3013 -0.0000 -27.5553 4.2041 10.8515 -21.3278 32.8623 0.0000 -24.3270 -12.4861 22.4710 51.2983 -117.8564 -50.3230 -36.9116 -39.1298 -0.0000 28.3822 -4.3070 16.3671 14.9634 33.1476 -0.0000 26.2537 16.4349 18.8223 52.4222
 -13.3643 33.8071 -6.0937 2.3271 5.4711 7.5892 -28.4022 1.8978 14.3633 19.0698 0.0000 0.0000 -4.0668 -23.3306 -5.9664 13.0772 0.0000 0.0000 11.5311 -6.3440 -30.7779 -5.5223 0.0000 -0.0000 -8.2459 3.8390 -3.9274 2.8942 -0.0000 0.0000 25.6225 2.4619 41.6649 15.4111 9.7658 -6.2996 -17.3936 -2.1334 59.9582 17.3451 -0.0000 -27.4995 4.2132 10.8432 -21.3850 32.8623 0.0000 -24.3270 -12.5005 22.4541 51.3273 -117.9059 -50.4246 -37.0528 -39.3015 -0.0000 28.4857 -4.2504 16.3062 14.8261 33.1476 -0.0000 26.2537 16.5481 18.8646 52.3453
 -13.3614 33.8072 -6.0922 2.3166 5.4419 7.5844 -28.4107 1.8803 14.3662 19.1294 -0.0000 0.0000 -4.0491 -23.2657 -5.9368 13.0618 0.0000 -0.0000 11.5361 -6.3571 -30.7765 -5.5357 -0.0000 -0.0000 -8.2302 3.8650 -3.9482 2.9128 -0.0000 -0.0000 25.6977 2.4791 41.6924 15.4152 9.7671 -6.2766 -17.4190 -2.1416 59.9459 17.4109 -0.0000 -27.4809 4.2260 10.8460 -21.4391 32.8623 0.0000 -24.3270 -12.5020 22.4737 51.3672 -117.9844 -50.5195 -37.2010 -39.4713 -0.0000 28.6319 -4.1683 16.1863 14.6514 33.1476 -0.0000 26.2537 16.6738 18.9009 52.2921
 -13.3581 33.8071 -6.0899 2.2915 5.4315 7.5820 -28.3898 1.8309 14.3640 19.1695 0.0000 0.0000 -4.0499 -23.2036 -5.9657 13.0775 0.0000 -0.0000 11.5679 -6.3605 -30.7764 -5.5483 -0.0000 0.0000 -8.2094 3.8591 -3.9275 2.8693 -0.0000 -0.0000 25.7723 2.4939 41.7213 15.4066 9.7692 -6.2433 -17.4505 -2.2357 59.9325 17.5008 -0.0000 -27.3605 4.2064 10.8122 -21.4082 32.8623 0.0000 -24.3270 -12.4882 22.5342 51.4123 -118.1146 -50.5759 -37.3670 -39.6562 -0.0000 28.7688 -4.1398 16.0955 14.6316 33.1476 -0.0000 26.2537 16.7648 18.9354 52.2797
 -13.3545 33.8079 -6.0878 2.2573 5.4327 7.5820 -28.3637 1.7692 14.3509 19.2148 0.0000 -0.0000 -4.0546 -23.1465 -6.0114 13.1494 0.0000 0.0000 11.5940 -6.3802 -30.7710 -5.5441 -0.0000 0.0000 -8.1879 3.8493 -3.9309 2.8604 -0.0000 0.0000 25.8586 2.5040 41.7582 15.4039 9.7711 -6.2257 -17.4793 -2.3121 59.9320 17.5724 -0.0000 -27.2770 4.2201 10.8364 -21.4289 32.8623 0.0000 -24.3270 -12.4748 22.5937 51.4366 -118.1514 -50.6593 -37.4567 -39.8456 -0.0000 28.8756 -4.1583 15.9911 14.7838 33.1476 -0.0000 26.2537 16.8209 18.9838 52.2795
 -13.3516 33.8088 -6.0871 2.2455 5.4435 7.5849 -28.3672 1.7468 14.3344 19.2497 -0.0000 -0.0000 -4.0382 -23.1111 -6.0074 13.1134 -0.0000 -0.0000 11.5936 -6.3997 -30.7731 -5.5325 -0.0000 0.0000 -8.1841 3.8529 -3.9182 2.8585 0.0000 0.0000 25.9075 2.5156 41.8047 15.4005 9.7519 -6.2171 -17.4751 -2.3292 59.9437 17.6266 -0.0000 -27.2787 4.2689 10.9176 -21.5102 32.8623 0.0000 -24.3270 -12.4743 22.6270 51.4079 -118.1272 -50.7597 -37.5384 -40.0798 -0.0000 28.9427 -4.0006 15.8694 14.3464 33.1476 -0.0000 26.2537 16.8761 19.0444 52.2849
 -13.3505 33.8088 -6.0870 2.2257 5.4604 7.5865 -28.3670 1.7079 14.3173 19.2950 -0.0000 -0.0000 -4.0266 -23.0650 -5.9943 13.1198 -0.0000 0.0000 11.5907 -6.4483 -30.7729 -5.5298 -0.0000 0.0000 -8.1459 3.8728 -3.8018 2.6615 0.0000 -0.0000 25.9575 2.5259 41.8278 15.4397 9.7240 -6.1850 -17.4910 -2.2596 59.9303 17.6528 -0.0000 -27.3258 4.2667 10.9328 -21.4733 32.8623 0.0000 -24.3270 -12.4588 22.6450 51.4150 -118.0771 -50.8665 -37.5800 -40.2875 -0.0000 29.0943 -3.9835 15.8525 14.3018 33.1476 -0.0000 26.2537 16.9492 19.0398 52.3095
 -13.3501 33.8101 -6.0862 2.2014 5.4840 7.5971 -28.3524 1.6400 14.2872 19.3383 -0.0000 -0.0000 -4.0210 -22.9814 -5.9722 13.0826 0.0000 0.0000 11.6162 -6.4442 -30.7754 -5.5173 0.0000 0.0000 -8.1532 3.8716 -3.8874 2.7317 -0.0000 0.0000 25.9937 2.5417 41.8409 15.4296 9.7014 -6.1354 -17.4648 -2.2321 59.9110 17.6701 -0.0000 -27.3313 4.2287 10.9059 -21.3460 32.8623 0.0000 -24.3270 -12.5478 22.5649 51.4460 -117.9382 -50.9915 -37.6690 -40.4056 -0.0000 29.2672 -3.9139 15.7796 14.1218 33.1476 -0.0000 26.2537 17.0491 19.0126 52.3589
 -13.3504 33.8104 -6.0854 2.1711 5.5157 7.5981 -28.3267 1.5915 14.2682 19.3522 -0.0000 0.0000 -4.0122 -22.9323 -5.9810 13.1231 -0.0000 -0.0000 11.6361 -6.4859 -30.7673 -5.5115 0.0000 -0.0000 -8.1398 3.8473 -3.7784 2.6633 0.0000 -0.0000 26.0377 2.5538 41.8718 15.4961 9.6619 -6.1205 -17.5205 -2.1790 59.9121 17.6585 -0.0000 -27.3610 4.2151 10.9083 -21.2789 32.8623 0.0000 -24.3270 -12.4978 22.5804 51.4298 -117.7869 -51.1435 -37.5695 -40.5314 -0.0000 29.4323 -3.9429 15.7791 14.2230 33.1476 -0.0000 26.2537 17.1195 18.9724 52.4063
 -13.3511 33.8107 -6.0850 2.1288 5.5549 7.6087 -28.2880 1.5553 14.2409 19.3590 0.0000 0.0000 -4.0069 -22.9197 -5.9598 13.1167 0.0000 -0.0000 11.7744 -6.1784 -30.7619 -5.3362 -0.0000 0.0000 -8.2271 3.4833 -3.8718 2.5849 -0.0000 -0.0000 26.0979 2.5764 41.8784 15.5165 9.6081 -6.0744 -17.5773 -2.1590 59.9125 17.6490 -0.0000 -27.3407 4.1898 10.8685 -21.2319 32.8623 0.0000 -24.3270 -12.4425 22.6420 51.4275 -117.7833 -51.2041 -37.5495 -40.6823 -0.0000 29.6419 -3.8767 15.7633 14.0062 33.1476 -0.0000 26.2537 17.2379 18.8676 52.4180
 -13.3518 33.8129 -6.0852 2.0882 5.6234 7.6198 -28.2366 1.4784 14.1973 19.3390 0.0000 0.0000 -3.9920 -22.8994 -5.9584 13.1198 0.0000 -0.0000 11.8063 -6.2072 -30.7540 -5.3118 0.0000 0.0000 -8.2287 3.4587 -3.8589 2.6217 0.0000 0.0000 26.1355 2.5691 41.9209 15.5530 9.5562 -6.0847 -17.6455 -2.1944 59.9606 17.6385 -0.0000 -27.3107 4.1136 10.7105 -21.1555 32.8623 0.0000 -24.3270 -12.3363 22.7061 51.3582 -117.7420 -51.3434 -37.4708 -40.7483 -0.0000 29.8091 -3.8230 15.6940 13.8762 33.1476 -0.0000 26.2537 17.2427 18.8656 52.5038
